<svg width="257" height="68" viewBox="0 0 257 68" fill="none" xmlns="http://www.w3.org/2000/svg">
<path d="M17.9625 53.6336C17.6715 53.3014 17.4969 52.9588 17.4395 52.5334C17.4153 52.3586 17.4038 52.1877 17.4038 52.0141C17.4038 51.9575 17.4057 51.9026 17.4076 51.847C17.5478 48.2729 21.534 45.2336 28.2711 43.5189C25.3161 50.4213 22.4871 54.1825 19.293 54.1682H19.192C18.834 54.1587 18.331 54.0597 17.9624 53.6336H17.9625ZM49.4338 46.6927V46.6354V46.6121C49.4314 46.3897 49.4159 46.1677 49.3873 45.946C48.8553 42.1452 43.9709 39.9747 37.9959 39.8172C40.4995 34.7627 41.9472 29.7929 41.9472 25.9961C41.9472 23.5883 41.3645 21.6433 40.0763 20.4596C39.4089 19.852 38.1466 19.3347 36.4761 19.3347C32.9847 19.3347 27.7286 21.6115 22.4975 30.171C19.4458 35.1633 15.8661 42.0299 15.5155 46.5638L15.5098 46.6656L16.1395 46.7875L16.1684 46.6868C16.417 45.8027 17.9981 41.3107 22.8768 33.8316C26.2178 28.7079 30.0673 25.056 33.2026 23.7764C33.0575 27.5205 30.531 37.5955 30.2207 38.5123L30.1615 38.6909L30.3468 38.6612C30.9351 38.5633 31.5802 38.3435 32.3644 38.2358L32.4336 38.2263L32.4576 38.1581C33.8324 34.0127 35.5105 27.3657 35.6773 23.3134C35.739 23.3114 35.7993 23.3107 35.8589 23.3107C36.6203 23.3134 37.0741 23.5102 37.6704 24.0528C38.5669 24.8725 39.0018 26.2992 39.0018 28.1453C39.0018 31.225 37.7904 35.444 35.617 39.8407C34.1119 39.9139 32.8369 40.1095 31.2163 40.4322L30.3468 40.6193C24.3916 41.9749 19.4152 44.7771 16.8903 47.9442C16.2463 48.7534 15.7574 49.5926 15.4552 50.4443C14.7905 48.7132 14.4694 46.4159 14.4694 43.7501C14.4694 39.7075 15.2065 34.823 16.5688 29.7856C19.4909 18.9242 24.5753 11.4893 28.543 11.522C28.9126 11.522 29.2668 11.5831 29.6152 11.7108C32.1919 12.645 32.8033 15.313 33.174 17.8769L33.1931 18.0132L35.5712 17.2088L35.574 17.1329C35.5894 16.9015 35.5971 16.6578 35.5971 16.4014C35.5913 13.1182 34.3423 7.91514 30.656 7.19015C30.3475 7.1316 30.0343 7.09938 29.718 7.09546H29.7023H29.6446C24.0916 7.12866 17.8485 15.4114 14.07 27.6133C12.555 32.5122 11.8179 37.535 11.8179 42.0222C11.8179 50.5882 14.503 57.2632 19.761 57.2841C20.291 57.2841 20.8486 57.216 21.4295 57.071C27.1665 55.6483 32.7373 48.5204 35.7461 44.3195L35.8813 44.1304L33.5342 44.2187L33.5022 44.2608C33.4984 44.2646 31.5134 46.8193 29.216 49.157C27.9681 50.4231 26.771 51.5322 25.5458 52.5199L25.3711 52.3366C27.3504 49.9509 29.2573 46.6543 30.8979 42.7358C32.4107 42.4322 35.9457 42.2172 36.4861 42.2182C36.5005 42.2182 36.5109 42.2192 36.5215 42.2192C41.7054 42.2682 45.3017 44.1411 45.6579 46.8629C45.6773 47.0154 45.6887 47.172 45.6887 47.3291C45.7107 51.0156 40.0064 55.8992 32.4972 57.461C29.6258 58.061 27.172 58.6026 24.5082 58.6014C23.4099 58.6014 22.279 58.5102 21.0617 58.2914L20.9549 58.2732L20.8178 58.9336L20.9196 58.9625C23.0411 59.5471 24.9092 59.7813 26.7093 59.7813C29.1919 59.7813 31.5408 59.3397 34.251 58.7733C43.038 56.9256 49.4086 51.6047 49.434 46.6925L49.4338 46.6927Z" fill="#002616"/>
<path d="M72.5099 42.3937C72.5099 43.7923 72.4774 45.386 72.3798 46.4592H74.8515L75.014 43.8573H75.0791C76.2825 45.9389 78.0714 46.8169 80.3481 46.8169C83.8607 46.8169 87.4383 44.0199 87.4383 38.3608C87.4383 33.6122 84.7064 30.3598 80.8034 30.3598C78.2667 30.3598 76.4454 31.4656 75.437 33.2219H75.372V23.3672H72.5099V42.3937ZM75.372 37.3201C75.372 36.8647 75.437 36.4745 75.5345 36.1167C76.0874 33.9702 77.9088 32.6041 79.8604 32.6041C82.9175 32.6041 84.5437 35.3036 84.5437 38.491C84.5437 42.1011 82.7874 44.5404 79.7627 44.5404C77.7137 44.5404 76.0225 43.1743 75.4695 41.1904C75.4044 40.8652 75.3719 40.5074 75.3719 40.1496V37.3201H75.372Z" fill="#002616"/>
<path d="M104.478 35.0119C104.478 33.1256 104.511 31.8247 104.608 30.7187H102.071L101.974 33.093H101.909C101.193 31.7595 99.7296 30.3611 96.9976 30.3611C93.3549 30.3611 89.8749 33.3534 89.8749 38.6873C89.8749 43.0779 92.6719 46.3954 96.5748 46.3954C99.014 46.3954 100.738 45.2245 101.583 43.761H101.648V45.4848C101.648 49.4853 99.5019 51.0138 96.5748 51.0138C94.6233 51.0138 92.9971 50.4285 91.9563 49.7455L91.2407 51.957C92.5091 52.8026 94.5907 53.258 96.4771 53.258C98.4612 53.258 100.673 52.7703 102.234 51.3717C103.73 49.9731 104.478 47.7939 104.478 44.1512V35.0119H104.478ZM101.616 39.7278C101.616 40.2482 101.551 40.8012 101.388 41.2565C100.803 43.1103 99.2093 44.2162 97.4205 44.2162C94.3631 44.2162 92.7694 41.6143 92.7694 38.557C92.7694 34.8818 94.721 32.5728 97.4528 32.5728C99.5669 32.5728 100.933 33.9387 101.453 35.6299C101.584 36.0202 101.616 36.443 101.616 36.8983V39.7278Z" fill="#002616"/>
<path d="M109.194 46.4592H112.056V23.3672H109.194V46.4592Z" fill="#002616"/>
<path d="M122.692 45.6787C123.798 46.3292 125.392 46.7845 127.115 46.7845C130.791 46.7845 132.97 44.8331 132.97 42.0361C132.97 39.6943 131.539 38.3282 128.839 37.3201C126.79 36.507 125.88 35.9215 125.88 34.6206C125.88 33.4498 126.79 32.474 128.482 32.474C129.945 32.474 131.083 33.0269 131.701 33.3846L132.384 31.3356C131.539 30.7827 130.14 30.3599 128.547 30.3599C125.197 30.3599 123.115 32.4414 123.115 34.9783C123.115 36.8321 124.449 38.3933 127.311 39.4342C129.392 40.2148 130.205 40.9301 130.205 42.2962C130.205 43.6298 129.23 44.638 127.181 44.638C125.75 44.638 124.253 44.0526 123.375 43.5321L122.692 45.6787Z" fill="#002616"/>
<path d="M149.299 39.1089C149.364 38.7835 149.396 38.3608 149.396 37.7753C149.396 34.8807 148.063 30.3599 142.924 30.3599C138.338 30.3599 135.509 34.1001 135.509 38.8487C135.509 43.5646 138.436 46.7845 143.249 46.7845C145.754 46.7845 147.51 46.2317 148.518 45.7763L147.998 43.7272C146.957 44.1826 145.689 44.5402 143.64 44.5402C140.778 44.5402 138.338 42.9465 138.273 39.1088H149.299L149.299 39.1089ZM138.306 37.0597C138.533 35.0758 139.769 32.4088 142.696 32.4088C145.884 32.4088 146.664 35.2383 146.632 37.0597H138.306Z" fill="#002616"/>
<path d="M163.674 43.7272C162.861 44.085 161.788 44.4754 160.161 44.4754C157.039 44.4754 154.697 42.2312 154.697 38.5884C154.697 35.3359 156.649 32.6364 160.259 32.6364C161.82 32.6364 162.894 33.0268 163.577 33.3845L164.227 31.2055C163.446 30.7826 161.95 30.3599 160.259 30.3599C155.12 30.3599 151.803 33.905 151.803 38.7511C151.803 43.5646 154.892 46.7845 159.641 46.7845C161.755 46.7845 163.414 46.2317 164.162 45.8739L163.674 43.7274V43.7272Z" fill="#002616"/>
<path d="M180.685 30.7182H177.823V40.3453C177.823 40.8982 177.725 41.4186 177.563 41.8089C177.042 43.1098 175.709 44.4433 173.79 44.4433C171.221 44.4433 170.277 42.3942 170.277 39.4021V30.7182H167.415V39.9224C167.415 45.419 170.375 46.8176 172.847 46.8176C175.644 46.8176 177.335 45.1589 178.051 43.8904H178.116L178.278 46.4598H180.815C180.718 45.2239 180.685 43.7928 180.685 42.1341V30.718V30.7182Z" fill="#002616"/>
<path d="M185.432 46.4594H188.294V38.0357C188.294 37.5802 188.327 37.125 188.392 36.7021C188.782 34.5881 190.213 33.0594 192.229 33.0594C192.62 33.0594 192.913 33.0919 193.205 33.1245V30.425C192.945 30.3924 192.717 30.3599 192.425 30.3599C190.506 30.3599 188.749 31.6933 188.034 33.8074H187.936L187.806 30.7176H185.302C185.4 32.1812 185.432 33.775 185.432 35.6288V46.4593V46.4594Z" fill="#002616"/>
<path d="M199.059 46.46V30.7183H196.197V46.46H199.059ZM197.595 28.0839C198.701 28.0839 199.384 27.2708 199.384 26.3275C199.384 25.3193 198.669 24.5388 197.628 24.5388C196.554 24.5388 195.839 25.3194 195.839 26.3275C195.839 27.2707 196.522 28.0839 197.563 28.0839H197.595Z" fill="#002616"/>
<path d="M204.459 27.8229V30.7176H202.02V32.8968H204.459V41.4504C204.459 43.3044 204.784 44.703 205.565 45.581C206.248 46.3291 207.321 46.7844 208.654 46.7844C209.76 46.7844 210.638 46.5893 211.191 46.394L211.061 44.215C210.638 44.3451 210.183 44.4101 209.402 44.4101C207.809 44.4101 207.256 43.3042 207.256 41.3527V32.8965H211.354V30.7173H207.256V26.9446L204.459 27.8227V27.8229Z" fill="#002616"/>
<path d="M217.435 46.46V30.7183H214.573V46.46H217.435ZM215.972 28.0839C217.078 28.0839 217.761 27.2708 217.761 26.3275C217.761 25.3193 217.045 24.5388 216.004 24.5388C214.931 24.5388 214.215 25.3194 214.215 26.3275C214.215 27.2707 214.898 28.0839 215.939 28.0839H215.972Z" fill="#002616"/>
<path d="M234.836 39.1089C234.901 38.7835 234.934 38.3608 234.934 37.7753C234.934 34.8807 233.6 30.3599 228.461 30.3599C223.875 30.3599 221.046 34.1001 221.046 38.8487C221.046 43.5646 223.973 46.7845 228.786 46.7845C231.291 46.7845 233.047 46.2317 234.055 45.7763L233.535 43.7272C232.494 44.1826 231.226 44.5402 229.177 44.5402C226.315 44.5402 223.875 42.9465 223.81 39.1088H234.836L234.836 39.1089ZM223.843 37.0597C224.07 35.0758 225.306 32.4088 228.233 32.4088C231.421 32.4088 232.201 35.2383 232.169 37.0597H223.843Z" fill="#002616"/>
<path d="M237.406 45.6787C238.512 46.3292 240.106 46.7845 241.83 46.7845C245.505 46.7845 247.684 44.8331 247.684 42.0361C247.684 39.6943 246.253 38.3282 243.554 37.3201C241.504 36.507 240.594 35.9215 240.594 34.6206C240.594 33.4498 241.504 32.474 243.196 32.474C244.659 32.474 245.798 33.0269 246.416 33.3846L247.099 31.3356C246.253 30.7827 244.855 30.3599 243.261 30.3599C239.911 30.3599 237.829 32.4414 237.829 34.9783C237.829 36.8321 239.163 38.3933 242.025 39.4342C244.107 40.2148 244.92 40.9301 244.92 42.2962C244.92 43.6298 243.944 44.638 241.895 44.638C240.464 44.638 238.968 44.0526 238.089 43.5321L237.406 45.6787Z" fill="#002616"/>
<path d="M212.849 53.2534H213.345V51.5897H213.812C214.263 51.6068 214.473 51.8063 214.587 52.3361C214.69 52.8146 214.775 53.1394 214.838 53.2533H215.351C215.277 53.1051 215.186 52.7348 215.06 52.1993C214.963 51.8004 214.787 51.5271 214.496 51.4244V51.4072C214.895 51.2705 215.22 50.9345 215.22 50.433C215.22 50.1312 215.106 49.869 214.918 49.7038C214.678 49.4873 214.331 49.3848 213.801 49.3848C213.465 49.3848 213.1 49.4189 212.85 49.4703V53.2534H212.849ZM213.345 49.8179C213.431 49.795 213.596 49.7723 213.835 49.7723C214.359 49.7723 214.718 49.989 214.718 50.4846C214.718 50.9233 214.382 51.2138 213.852 51.2138H213.345V49.8179Z" fill="#002616"/>
<path d="M218.494 52.7295C218.295 52.8263 217.987 52.8891 217.679 52.8891C216.751 52.8891 216.209 52.2908 216.209 51.3508C216.209 50.3481 216.808 49.7726 217.708 49.7726C218.027 49.7726 218.295 49.841 218.477 49.9321L218.602 49.522C218.471 49.4592 218.164 49.3567 217.691 49.3567C216.5 49.3567 215.685 50.1657 215.685 51.3679C215.685 52.6271 216.494 53.3108 217.577 53.3108C218.044 53.3108 218.415 53.2195 218.591 53.1284L218.494 52.7295H218.494Z" fill="#002616"/>
<path d="M220.895 53.2542V51.6133C220.895 50.9751 220.889 50.5137 220.861 50.0294L220.878 50.0236C221.066 50.4395 221.322 50.8782 221.59 51.3057L222.81 53.2542H223.311V49.4141H222.844V51.0264C222.844 51.619 222.855 52.0861 222.901 52.5989L222.884 52.6047C222.707 52.2115 222.479 51.807 222.2 51.3569L220.975 49.4141H220.428V53.2542H220.895H220.895Z" fill="#002616"/>
<path d="M225.287 53.3169C225.942 53.3169 226.654 52.8726 226.654 51.847C226.654 51.0094 226.118 50.4338 225.326 50.4338C224.569 50.4338 223.959 50.9751 223.959 51.8981C223.959 52.7699 224.54 53.3167 225.281 53.3167H225.287V53.3169ZM225.298 52.9409C224.814 52.9409 224.472 52.485 224.472 51.8812C224.472 51.357 224.728 50.8101 225.315 50.8101C225.908 50.8101 226.141 51.3969 226.141 51.8641C226.141 52.4907 225.782 52.9409 225.304 52.9409H225.298Z" fill="#002616"/>
<path d="M227.509 51.3059C227.714 51.3059 227.845 51.1519 227.845 50.9526C227.845 50.7418 227.714 50.5938 227.509 50.5938C227.316 50.5938 227.173 50.7419 227.173 50.9526C227.173 51.1521 227.31 51.3059 227.504 51.3059H227.509ZM227.509 53.317C227.714 53.317 227.845 53.1632 227.845 52.9638C227.845 52.753 227.714 52.605 227.509 52.605C227.316 52.605 227.173 52.7532 227.173 52.9638C227.173 53.1633 227.31 53.317 227.504 53.317H227.509Z" fill="#002616"/>
<path d="M231.878 53.2533V52.8375H230.22V52.826L230.511 52.5526C231.291 51.8004 231.787 51.2478 231.787 50.5641C231.787 50.0343 231.451 49.4873 230.659 49.4873C230.232 49.4873 229.861 49.6524 229.611 49.8634L229.77 50.2165C229.941 50.0741 230.22 49.9032 230.556 49.9032C231.109 49.9032 231.286 50.2507 231.286 50.6266C231.286 51.1851 230.853 51.6637 229.907 52.5638L229.514 52.9456V53.2532H231.878L231.878 53.2533Z" fill="#002616"/>
<path d="M234.55 49.4939C234.459 49.4939 234.334 49.4996 234.185 49.5225C233.718 49.5793 233.308 49.7674 233 50.0693C232.63 50.4339 232.374 51.0094 232.374 51.7386C232.374 52.7016 232.892 53.3168 233.678 53.3168C234.453 53.3168 234.915 52.6901 234.915 52.0064C234.915 51.2884 234.453 50.81 233.798 50.81C233.388 50.81 233.074 51.0037 232.898 51.2429H232.886C232.972 50.6276 233.382 50.0579 234.174 49.9326C234.316 49.9098 234.447 49.8984 234.55 49.904V49.4939H234.55ZM233.684 52.9293C233.16 52.9293 232.875 52.4736 232.869 51.864C232.869 51.7728 232.892 51.7044 232.921 51.6474C233.057 51.3739 233.342 51.1915 233.644 51.1915C234.106 51.1915 234.408 51.5106 234.408 52.0406C234.408 52.5705 234.117 52.9293 233.69 52.9293H233.684H233.684Z" fill="#002616"/>
<path d="M235.648 53.3103C235.762 53.3159 235.928 53.3046 236.11 53.2817C236.509 53.2362 236.902 53.0596 237.187 52.786C237.551 52.4329 237.825 51.8631 237.825 51.0484C237.825 50.0969 237.358 49.4873 236.6 49.4873C235.842 49.4873 235.329 50.1026 235.329 50.7976C235.329 51.4358 235.757 51.9372 236.423 51.9372C236.799 51.9372 237.096 51.789 237.301 51.5383H237.318C237.25 51.977 237.073 52.2961 236.828 52.524C236.617 52.7234 236.344 52.8431 236.053 52.8771C235.882 52.8999 235.757 52.9057 235.649 52.8999V53.3103H235.648ZM236.56 49.869C237.084 49.869 237.323 50.3476 237.318 50.9858C237.318 51.0655 237.3 51.1225 237.278 51.168C237.141 51.3901 236.879 51.5554 236.543 51.5554C236.11 51.5554 235.831 51.2307 235.831 50.7693C235.831 50.2451 236.133 49.869 236.554 49.869H236.56H236.56Z" fill="#002616"/>
<path d="M240.395 49.4939C240.304 49.4939 240.179 49.4996 240.031 49.5225C239.563 49.5793 239.153 49.7674 238.845 50.0693C238.475 50.4339 238.219 51.0094 238.219 51.7386C238.219 52.7016 238.737 53.3168 239.523 53.3168C240.298 53.3168 240.76 52.6901 240.76 52.0064C240.76 51.2884 240.298 50.81 239.643 50.81C239.233 50.81 238.919 51.0037 238.743 51.2429H238.731C238.817 50.6276 239.227 50.0579 240.019 49.9326C240.162 49.9098 240.292 49.8984 240.395 49.904V49.4939H240.395ZM239.529 52.9293C239.005 52.9293 238.72 52.4736 238.714 51.864C238.714 51.7728 238.737 51.7044 238.766 51.6474C238.902 51.3739 239.187 51.1915 239.489 51.1915C239.951 51.1915 240.253 51.5106 240.253 52.0406C240.253 52.5705 239.962 52.9293 239.535 52.9293H239.529H239.529Z" fill="#002616"/>
<path d="M243.319 49.4939C243.228 49.4939 243.102 49.4996 242.954 49.5225C242.487 49.5793 242.077 49.7674 241.769 50.0693C241.399 50.4339 241.143 51.0094 241.143 51.7386C241.143 52.7016 241.661 53.3168 242.447 53.3168C243.222 53.3168 243.684 52.6901 243.684 52.0064C243.684 51.2884 243.222 50.81 242.567 50.81C242.157 50.81 241.843 51.0037 241.667 51.2429H241.655C241.741 50.6276 242.151 50.0579 242.943 49.9326C243.085 49.9098 243.216 49.8984 243.319 49.904V49.4939H243.319ZM242.453 52.9293C241.929 52.9293 241.644 52.4736 241.638 51.864C241.638 51.7728 241.661 51.7044 241.69 51.6474C241.826 51.3739 242.111 51.1915 242.413 51.1915C242.875 51.1915 243.177 51.5106 243.177 52.0406C243.177 52.5705 242.886 52.9293 242.459 52.9293H242.453H242.453Z" fill="#002616"/>
<path d="M246.24 49.4939C246.149 49.4939 246.024 49.4996 245.875 49.5225C245.408 49.5793 244.998 49.7674 244.69 50.0693C244.32 50.4339 244.064 51.0094 244.064 51.7386C244.064 52.7016 244.582 53.3168 245.368 53.3168C246.143 53.3168 246.605 52.6901 246.605 52.0064C246.605 51.2884 246.143 50.81 245.488 50.81C245.078 50.81 244.764 51.0037 244.588 51.2429H244.576C244.662 50.6276 245.072 50.0579 245.864 49.9326C246.006 49.9098 246.137 49.8984 246.24 49.904V49.4939H246.24ZM245.374 52.9293C244.85 52.9293 244.565 52.4736 244.559 51.864C244.559 51.7728 244.582 51.7044 244.611 51.6474C244.747 51.3739 245.032 51.1915 245.334 51.1915C245.796 51.1915 246.098 51.5106 246.098 52.0406C246.098 52.5705 245.807 52.9293 245.38 52.9293H245.374H245.374Z" fill="#002616"/>
</svg>
