<svg width="24" height="24" viewBox="0 0 24 24" fill="none" xmlns="http://www.w3.org/2000/svg">
<g clip-path="url(#clip0_8823_912)">
<path d="M24 12.0042C24 5.37673 18.6274 0.00415039 12 0.00415039C5.37258 0.00415039 0 5.37673 0 12.0042C0 17.9936 4.3882 22.9581 10.125 23.8584V15.4729H7.07812V12.0042H10.125V9.3604C10.125 6.3529 11.9166 4.69165 14.6576 4.69165C15.9701 4.69165 17.3438 4.92603 17.3438 4.92603V7.87915H15.8306C14.34 7.87915 13.875 8.80423 13.875 9.75415V12.0042H17.2031L16.6711 15.4729H13.875V23.8584C19.6118 22.9581 24 17.9936 24 12.0042Z" fill="#AFD9D9"/>
</g>
<defs>
<clipPath id="clip0_8823_912">
<rect width="24" height="24" fill="white" transform="translate(0 0.00415039)"/>
</clipPath>
</defs>
</svg>
