<svg width="24" height="24" viewBox="0 0 24 24" fill="none" xmlns="http://www.w3.org/2000/svg">
<g clip-path="url(#clip0_8823_909)">
<path d="M22.2234 0.00415039H1.77187C0.792187 0.00415039 0 0.777588 0 1.73384V22.2698C0 23.226 0.792187 24.0042 1.77187 24.0042H22.2234C23.2031 24.0042 24 23.226 24 22.2745V1.73384C24 0.777588 23.2031 0.00415039 22.2234 0.00415039ZM7.12031 20.4557H3.55781V8.99946H7.12031V20.4557ZM5.33906 7.43853C4.19531 7.43853 3.27188 6.51509 3.27188 5.37603C3.27188 4.23696 4.19531 3.31353 5.33906 3.31353C6.47813 3.31353 7.40156 4.23696 7.40156 5.37603C7.40156 6.5104 6.47813 7.43853 5.33906 7.43853ZM20.4516 20.4557H16.8937V14.887C16.8937 13.5604 16.8703 11.8495 15.0422 11.8495C13.1906 11.8495 12.9094 13.2979 12.9094 14.7932V20.4557H9.35625V8.99946H12.7687V10.5651H12.8156C13.2891 9.66509 14.4516 8.71353 16.1813 8.71353C19.7859 8.71353 20.4516 11.0854 20.4516 14.1698V20.4557Z" fill="#AFD9D9"/>
</g>
<defs>
<clipPath id="clip0_8823_909">
<rect width="24" height="24" fill="white" transform="translate(0 0.00415039)"/>
</clipPath>
</defs>
</svg>
