<svg width="56" height="56" viewBox="0 0 56 56" fill="none" xmlns="http://www.w3.org/2000/svg">
<rect x="4" y="4" width="48" height="48" rx="24" fill="#EAF8F8"/>
<rect x="4" y="4" width="48" height="48" rx="24" stroke="#E1F4F4" stroke-width="8"/>
<mask id="mask0_8858_45900" style="mask-type:alpha" maskUnits="userSpaceOnUse" x="15" y="15" width="25" height="25">
<rect x="15.8984" y="15.6211" width="24" height="24" fill="#D9D9D9"/>
</mask>
<g mask="url(#mask0_8858_45900)">
<path d="M17.8984 35.6211V32.8211C17.8984 32.2711 18.0401 31.7544 18.3234 31.2711C18.6068 30.7878 18.9984 30.4211 19.4984 30.1711C20.3484 29.7378 21.3068 29.3711 22.3734 29.0711C23.4401 28.7711 24.6151 28.6211 25.8984 28.6211C26.3984 28.6211 26.8859 28.6461 27.3609 28.6961C27.8359 28.7461 28.2984 28.8211 28.7484 28.9211L26.9984 30.6711C26.8151 30.6378 26.6359 30.6211 26.4609 30.6211H25.8984C24.7151 30.6211 23.6526 30.7628 22.7109 31.0461C21.7693 31.3294 20.9984 31.6378 20.3984 31.9711C20.2484 32.0544 20.1276 32.1711 20.0359 32.3211C19.9443 32.4711 19.8984 32.6378 19.8984 32.8211V33.6211H26.1484L28.1484 35.6211H17.8984ZM31.4484 36.0211L27.9984 32.5711L29.3984 31.1711L31.4484 33.2211L36.4984 28.1711L37.8984 29.5711L31.4484 36.0211ZM25.8984 27.6211C24.7984 27.6211 23.8568 27.2294 23.0734 26.4461C22.2901 25.6628 21.8984 24.7211 21.8984 23.6211C21.8984 22.5211 22.2901 21.5794 23.0734 20.7961C23.8568 20.0128 24.7984 19.6211 25.8984 19.6211C26.9984 19.6211 27.9401 20.0128 28.7234 20.7961C29.5068 21.5794 29.8984 22.5211 29.8984 23.6211C29.8984 24.7211 29.5068 25.6628 28.7234 26.4461C27.9401 27.2294 26.9984 27.6211 25.8984 27.6211ZM25.8984 25.6211C26.4484 25.6211 26.9193 25.4253 27.3109 25.0336C27.7026 24.6419 27.8984 24.1711 27.8984 23.6211C27.8984 23.0711 27.7026 22.6003 27.3109 22.2086C26.9193 21.8169 26.4484 21.6211 25.8984 21.6211C25.3484 21.6211 24.8776 21.8169 24.4859 22.2086C24.0943 22.6003 23.8984 23.0711 23.8984 23.6211C23.8984 24.1711 24.0943 24.6419 24.4859 25.0336C24.8776 25.4253 25.3484 25.6211 25.8984 25.6211Z" fill="#002616"/>
</g>
</svg>
