<svg width="248" height="60" viewBox="0 0 248 60" fill="none" xmlns="http://www.w3.org/2000/svg">
<path d="M17.961 53.4715C17.67 53.1393 17.4955 52.7966 17.438 52.3713C17.4138 52.1965 17.4023 52.0256 17.4023 51.852C17.4023 51.7954 17.4043 51.7405 17.4061 51.6849C17.5463 48.1108 21.5325 45.0715 28.2696 43.3568C25.3146 50.2592 22.4857 54.0204 19.2916 54.0061H19.1906C18.8326 53.9966 18.3296 53.8976 17.9609 53.4715H17.961ZM49.4324 46.5306V46.4733V46.45C49.43 46.2276 49.4144 46.0056 49.3859 45.7839C48.8539 41.9831 43.9694 39.8126 37.9944 39.655C40.498 34.6006 41.9457 29.6308 41.9457 25.834C41.9457 23.4262 41.363 21.4812 40.0748 20.2975C39.4074 19.6899 38.1451 19.1726 36.4747 19.1726C32.9832 19.1726 27.7271 21.4494 22.496 30.0088C19.4444 35.0012 15.8647 41.8678 15.5141 46.4017L15.5083 46.5035L16.1381 46.6254L16.1669 46.5247C16.4155 45.6406 17.9966 41.1486 22.8753 33.6695C26.2164 28.5458 30.0659 24.8938 33.2011 23.6143C33.056 27.3583 30.5295 37.4334 30.2192 38.3502L30.16 38.5288L30.3453 38.4991C30.9336 38.4012 31.5787 38.1814 32.363 38.0737L32.4322 38.0642L32.4561 37.9959C33.8309 33.8506 35.509 27.2036 35.6759 23.1513C35.7375 23.1493 35.7979 23.1486 35.8574 23.1486C36.6188 23.1513 37.0726 23.3481 37.6689 23.8907C38.5655 24.7104 39.0004 26.1371 39.0004 27.9832C39.0004 31.0629 37.7889 35.2818 35.6155 39.6786C34.1105 39.7518 32.8354 39.9474 31.2148 40.2701L30.3453 40.4572C24.3902 41.8128 19.4137 44.615 16.8888 47.7821C16.2448 48.5912 15.756 49.4305 15.4537 50.2821C14.7891 48.551 14.4679 46.2538 14.4679 43.588C14.4679 39.5454 15.2051 34.6609 16.5674 29.6235C19.4895 18.7621 24.5738 11.3271 28.5415 11.3599C28.9111 11.3599 29.2654 11.421 29.6137 11.5487C32.1904 12.4828 32.8018 15.1509 33.1726 17.7148L33.1916 17.8511L35.5697 17.0467L35.5725 16.9708C35.5879 16.7394 35.5956 16.4956 35.5956 16.2393C35.5899 12.9561 34.3409 7.75303 30.6546 7.02804C30.346 6.96949 30.0328 6.93727 29.7165 6.93335H29.7008H29.6431C24.0901 6.96655 17.847 15.2493 14.0686 27.4512C12.5536 32.3501 11.8164 37.3729 11.8164 41.8601C11.8164 50.4261 14.5015 57.1011 19.7595 57.1219C20.2895 57.1219 20.8471 57.0539 21.428 56.9089C27.1651 55.4862 32.7358 48.3583 35.7446 44.1574L35.8798 43.9683L33.5327 44.0565L33.5008 44.0987C33.497 44.1025 31.5119 46.6572 29.2145 48.9949C27.9667 50.261 26.7695 51.37 25.5443 52.3578L25.3697 52.1745C27.349 49.7888 29.2558 46.4922 30.8965 42.5736C32.4092 42.2701 35.9442 42.0551 36.4846 42.0561C36.499 42.0561 36.5094 42.0571 36.5201 42.0571C41.704 42.1061 45.3002 43.9789 45.6564 46.7007C45.6759 46.8533 45.6872 47.0099 45.6872 47.167C45.7092 50.8535 40.0049 55.7371 32.4958 57.2988C29.6244 57.8989 27.1705 58.4405 24.5067 58.4393C23.4084 58.4393 22.2775 58.3481 21.0602 58.1293L20.9535 58.1111L20.8163 58.7715L20.9182 58.8004C23.0396 59.385 24.9077 59.6192 26.7079 59.6192C29.1904 59.6192 31.5394 59.1776 34.2496 58.6111C43.0366 56.7635 49.4072 51.4426 49.4325 46.5304L49.4324 46.5306Z" fill="#B9BEBB"/>
<path d="M72.509 42.2316C72.509 43.6302 72.4765 45.2239 72.3789 46.2971H74.8507L75.0132 43.6952H75.0783C76.2816 45.7768 78.0706 46.6548 80.3472 46.6548C83.8599 46.6548 87.4375 43.8578 87.4375 38.1987C87.4375 33.4501 84.7056 30.1977 80.8026 30.1977C78.2658 30.1977 76.4445 31.3035 75.4362 33.0598H75.3712V23.2051H72.509V42.2316ZM75.3712 37.158C75.3712 36.7026 75.4362 36.3124 75.5337 35.9546C76.0865 33.8081 77.9079 32.442 79.8595 32.442C82.9166 32.442 84.5428 35.1415 84.5428 38.3289C84.5428 41.939 82.7865 44.3783 79.7619 44.3783C77.7128 44.3783 76.0217 43.0122 75.4687 41.0283C75.4035 40.7031 75.371 40.3453 75.371 39.9875V37.158H75.3712Z" fill="#B9BEBB"/>
<path d="M104.478 34.8498C104.478 32.9635 104.511 31.6625 104.608 30.5566H102.072L101.974 32.9309H101.909C101.193 31.5974 99.7298 30.199 96.9977 30.199C93.355 30.199 89.875 33.1912 89.875 38.5252C89.875 42.9157 92.672 46.2333 96.5749 46.2333C99.0142 46.2333 100.738 45.0624 101.584 43.5989H101.649V45.3227C101.649 49.3232 99.502 50.8517 96.5749 50.8517C94.6234 50.8517 92.9973 50.2664 91.9564 49.5834L91.2408 51.7949C92.5093 52.6405 94.5908 53.0959 96.4772 53.0959C98.4613 53.0959 100.673 52.6082 102.234 51.2096C103.73 49.811 104.478 47.6318 104.478 43.9891V34.8498H104.478ZM101.616 39.5657C101.616 40.0861 101.551 40.6391 101.389 41.0944C100.803 42.9482 99.2094 44.0541 97.4206 44.0541C94.3632 44.0541 92.7695 41.4522 92.7695 38.3949C92.7695 34.7197 94.7211 32.4106 97.453 32.4106C99.567 32.4106 100.933 33.7766 101.453 35.4678C101.584 35.8581 101.616 36.2809 101.616 36.7362V39.5657Z" fill="#B9BEBB"/>
<path d="M109.195 46.2971H112.057V23.2051H109.195V46.2971Z" fill="#B9BEBB"/>
<path d="M122.691 45.5166C123.797 46.167 125.391 46.6224 127.115 46.6224C130.79 46.6224 132.969 44.671 132.969 41.874C132.969 39.5322 131.538 38.1661 128.838 37.158C126.789 36.3449 125.879 35.7594 125.879 34.4585C125.879 33.2877 126.789 32.3119 128.481 32.3119C129.944 32.3119 131.083 32.8648 131.701 33.2225L132.384 31.1735C131.538 30.6206 130.14 30.1978 128.546 30.1978C125.196 30.1978 123.114 32.2793 123.114 34.8162C123.114 36.67 124.448 38.2312 127.31 39.2721C129.392 40.0527 130.205 40.768 130.205 42.1341C130.205 43.4677 129.229 44.4759 127.18 44.4759C125.749 44.4759 124.253 43.8905 123.374 43.37L122.691 45.5166Z" fill="#B9BEBB"/>
<path d="M149.298 38.9468C149.363 38.6214 149.396 38.1987 149.396 37.6132C149.396 34.7186 148.062 30.1978 142.923 30.1978C138.337 30.1978 135.508 33.938 135.508 38.6866C135.508 43.4025 138.435 46.6224 143.249 46.6224C145.753 46.6224 147.509 46.0696 148.517 45.6142L147.997 43.5651C146.956 44.0205 145.688 44.3781 143.639 44.3781C140.777 44.3781 138.337 42.7844 138.272 38.9467H149.298L149.298 38.9468ZM138.305 36.8976C138.532 34.9137 139.768 32.2467 142.695 32.2467C145.883 32.2467 146.663 35.0762 146.631 36.8976H138.305Z" fill="#B9BEBB"/>
<path d="M163.676 43.5651C162.863 43.9229 161.79 44.3132 160.163 44.3132C157.041 44.3132 154.699 42.0691 154.699 38.4263C154.699 35.1738 156.651 32.4743 160.261 32.4743C161.822 32.4743 162.895 32.8646 163.578 33.2224L164.229 31.0433C163.448 30.6205 161.952 30.1978 160.261 30.1978C155.122 30.1978 151.805 33.7429 151.805 38.5889C151.805 43.4025 154.894 46.6224 159.643 46.6224C161.757 46.6224 163.416 46.0696 164.164 45.7118L163.676 43.5653V43.5651Z" fill="#B9BEBB"/>
<path d="M180.684 30.556H177.822V40.1832C177.822 40.736 177.724 41.2565 177.562 41.6468C177.041 42.9477 175.708 44.2812 173.789 44.2812C171.219 44.2812 170.276 42.2321 170.276 39.24V30.556H167.414V39.7603C167.414 45.2569 170.374 46.6555 172.846 46.6555C175.643 46.6555 177.334 44.9968 178.049 43.7283H178.115L178.277 46.2977H180.814C180.716 45.0618 180.684 43.6307 180.684 41.972V30.5559V30.556Z" fill="#B9BEBB"/>
<path d="M185.431 46.2973H188.293V37.8736C188.293 37.4181 188.326 36.9629 188.391 36.54C188.781 34.426 190.212 32.8973 192.228 32.8973C192.619 32.8973 192.912 32.9298 193.204 32.9624V30.2629C192.944 30.2302 192.716 30.1978 192.424 30.1978C190.505 30.1978 188.748 31.5312 188.033 33.6452H187.935L187.805 30.5555H185.301C185.398 32.0191 185.431 33.6129 185.431 35.4667V46.2972V46.2973Z" fill="#B9BEBB"/>
<path d="M199.06 46.2979V30.5562H196.198V46.2979H199.06ZM197.596 27.9218C198.702 27.9218 199.385 27.1087 199.385 26.1654C199.385 25.1572 198.669 24.3767 197.629 24.3767C196.555 24.3767 195.84 25.1573 195.84 26.1654C195.84 27.1086 196.523 27.9218 197.564 27.9218H197.596Z" fill="#B9BEBB"/>
<path d="M204.459 27.6608V30.5555H202.02V32.7347H204.459V41.2883C204.459 43.1423 204.784 44.5408 205.565 45.4189C206.248 46.167 207.321 46.6223 208.654 46.6223C209.76 46.6223 210.638 46.4271 211.191 46.2319L211.061 44.0529C210.638 44.183 210.183 44.248 209.402 44.248C207.809 44.248 207.256 43.1421 207.256 41.1906V32.7344H211.354V30.5552H207.256V26.7825L204.459 27.6606V27.6608Z" fill="#B9BEBB"/>
<path d="M217.435 46.2979V30.5562H214.573V46.2979H217.435ZM215.971 27.9218C217.077 27.9218 217.76 27.1087 217.76 26.1654C217.76 25.1572 217.044 24.3767 216.004 24.3767C214.93 24.3767 214.215 25.1573 214.215 26.1654C214.215 27.1086 214.898 27.9218 215.939 27.9218H215.971Z" fill="#B9BEBB"/>
<path d="M234.837 38.9468C234.902 38.6214 234.935 38.1987 234.935 37.6132C234.935 34.7186 233.601 30.1978 228.462 30.1978C223.876 30.1978 221.047 33.938 221.047 38.6866C221.047 43.4025 223.974 46.6224 228.788 46.6224C231.292 46.6224 233.048 46.0696 234.057 45.6142L233.536 43.5651C232.495 44.0205 231.227 44.3781 229.178 44.3781C226.316 44.3781 223.877 42.7844 223.812 38.9467H234.837L234.837 38.9468ZM223.844 36.8976C224.071 34.9137 225.307 32.2467 228.234 32.2467C231.422 32.2467 232.202 35.0762 232.17 36.8976H223.844Z" fill="#B9BEBB"/>
<path d="M237.406 45.5166C238.512 46.167 240.106 46.6224 241.829 46.6224C245.505 46.6224 247.684 44.671 247.684 41.874C247.684 39.5322 246.253 38.1661 243.553 37.158C241.504 36.3449 240.594 35.7594 240.594 34.4585C240.594 33.2877 241.504 32.3119 243.196 32.3119C244.659 32.3119 245.797 32.8648 246.415 33.2225L247.098 31.1735C246.253 30.6206 244.854 30.1978 243.261 30.1978C239.911 30.1978 237.829 32.2793 237.829 34.8162C237.829 36.67 239.163 38.2312 242.025 39.2721C244.106 40.0527 244.919 40.768 244.919 42.1341C244.919 43.4677 243.944 44.4759 241.895 44.4759C240.464 44.4759 238.967 43.8905 238.089 43.37L237.406 45.5166Z" fill="#B9BEBB"/>
<path d="M212.848 53.0913H213.343V51.4276H213.811C214.261 51.4447 214.471 51.6442 214.585 52.174C214.688 52.6525 214.774 52.9773 214.836 53.0912H215.349C215.275 52.943 215.184 52.5727 215.058 52.0372C214.962 51.6383 214.785 51.365 214.494 51.2623V51.2451C214.893 51.1084 215.218 50.7724 215.218 50.2709C215.218 49.9691 215.104 49.7069 214.916 49.5417C214.677 49.3252 214.329 49.2227 213.799 49.2227C213.463 49.2227 213.099 49.2568 212.848 49.3082V53.0913H212.848ZM213.343 49.6557C213.429 49.6329 213.594 49.6102 213.833 49.6102C214.358 49.6102 214.716 49.8269 214.716 50.3225C214.716 50.7612 214.38 51.0517 213.85 51.0517H213.343V49.6557Z" fill="#B9BEBB"/>
<path d="M218.492 52.5674C218.293 52.6642 217.985 52.727 217.678 52.727C216.749 52.727 216.208 52.1287 216.208 51.1887C216.208 50.186 216.806 49.6104 217.706 49.6104C218.025 49.6104 218.293 49.6789 218.475 49.77L218.601 49.3599C218.47 49.2971 218.162 49.1946 217.689 49.1946C216.498 49.1946 215.684 50.0036 215.684 51.2058C215.684 52.465 216.493 53.1487 217.575 53.1487C218.042 53.1487 218.413 53.0574 218.589 52.9663L218.493 52.5674H218.492Z" fill="#B9BEBB"/>
<path d="M220.897 53.0921V51.4512C220.897 50.813 220.891 50.3516 220.863 49.8673L220.88 49.8615C221.068 50.2774 221.324 50.7161 221.592 51.1436L222.811 53.0921H223.313V49.252H222.845V50.8643C222.845 51.4569 222.857 51.924 222.902 52.4368L222.885 52.4426C222.709 52.0494 222.481 51.6449 222.202 51.1948L220.977 49.252H220.43V53.0921H220.897H220.897Z" fill="#B9BEBB"/>
<path d="M225.285 53.1547C225.94 53.1547 226.652 52.7105 226.652 51.6849C226.652 50.8473 226.116 50.2717 225.324 50.2717C224.567 50.2717 223.957 50.813 223.957 51.736C223.957 52.6078 224.538 53.1546 225.279 53.1546H225.285V53.1547ZM225.296 52.7788C224.812 52.7788 224.47 52.3229 224.47 51.7191C224.47 51.1949 224.726 50.648 225.313 50.648C225.906 50.648 226.139 51.2348 226.139 51.702C226.139 52.3286 225.78 52.7788 225.302 52.7788H225.296Z" fill="#B9BEBB"/>
<path d="M227.508 51.1437C227.713 51.1437 227.844 50.9898 227.844 50.7905C227.844 50.5797 227.713 50.4316 227.508 50.4316C227.314 50.4316 227.172 50.5798 227.172 50.7905C227.172 50.9899 227.309 51.1437 227.502 51.1437H227.508ZM227.508 53.1548C227.713 53.1548 227.844 53.001 227.844 52.8017C227.844 52.5909 227.713 52.4429 227.508 52.4429C227.314 52.4429 227.172 52.5911 227.172 52.8017C227.172 53.0012 227.309 53.1548 227.502 53.1548H227.508Z" fill="#B9BEBB"/>
<path d="M231.88 53.0912V52.6753H230.222V52.6639L230.513 52.3904C231.293 51.6383 231.789 51.0857 231.789 50.402C231.789 49.8722 231.453 49.3252 230.661 49.3252C230.234 49.3252 229.863 49.4903 229.613 49.7013L229.772 50.0544C229.943 49.9119 230.222 49.7411 230.558 49.7411C231.111 49.7411 231.287 50.0886 231.287 50.4645C231.287 51.023 230.855 51.5016 229.909 52.4017L229.516 52.7835V53.0911H231.88L231.88 53.0912Z" fill="#B9BEBB"/>
<path d="M234.551 49.3318C234.46 49.3318 234.335 49.3375 234.187 49.3604C233.72 49.4172 233.309 49.6053 233.002 49.9072C232.631 50.2718 232.375 50.8473 232.375 51.5765C232.375 52.5395 232.894 53.1547 233.68 53.1547C234.455 53.1547 234.916 52.528 234.916 51.8443C234.916 51.1263 234.454 50.6479 233.799 50.6479C233.389 50.6479 233.076 50.8416 232.899 51.0808H232.888C232.973 50.4655 233.383 49.8958 234.175 49.7705C234.318 49.7476 234.449 49.7363 234.551 49.7419V49.3318H234.551ZM233.685 52.7672C233.161 52.7672 232.876 52.3115 232.871 51.7019C232.871 51.6107 232.894 51.5423 232.922 51.4853C233.059 51.2118 233.343 51.0294 233.645 51.0294C234.107 51.0294 234.409 51.3485 234.409 51.8785C234.409 52.4084 234.118 52.7672 233.691 52.7672H233.685H233.685Z" fill="#B9BEBB"/>
<path d="M235.647 53.1482C235.761 53.1538 235.926 53.1425 236.109 53.1196C236.507 53.0741 236.9 52.8975 237.185 52.6239C237.55 52.2708 237.824 51.701 237.824 50.8863C237.824 49.9348 237.356 49.3252 236.599 49.3252C235.841 49.3252 235.328 49.9405 235.328 50.6355C235.328 51.2737 235.755 51.7751 236.422 51.7751C236.798 51.7751 237.094 51.6269 237.299 51.3762H237.317C237.248 51.8149 237.072 52.134 236.827 52.3619C236.616 52.5613 236.342 52.6809 236.052 52.715C235.881 52.7378 235.755 52.7436 235.647 52.7378V53.1482H235.647ZM236.558 49.7069C237.083 49.7069 237.322 50.1855 237.316 50.8236C237.316 50.9033 237.299 50.9603 237.276 51.0059C237.14 51.228 236.878 51.3933 236.542 51.3933C236.109 51.3933 235.829 51.0686 235.829 50.6072C235.829 50.083 236.131 49.7069 236.553 49.7069H236.559H236.558Z" fill="#B9BEBB"/>
<path d="M240.395 49.3318C240.304 49.3318 240.179 49.3375 240.031 49.3604C239.563 49.4172 239.153 49.6053 238.845 49.9072C238.475 50.2718 238.219 50.8473 238.219 51.5765C238.219 52.5395 238.737 53.1547 239.523 53.1547C240.298 53.1547 240.76 52.528 240.76 51.8443C240.76 51.1263 240.298 50.6479 239.643 50.6479C239.233 50.6479 238.919 50.8416 238.743 51.0808H238.731C238.817 50.4655 239.227 49.8958 240.019 49.7705C240.162 49.7476 240.292 49.7363 240.395 49.7419V49.3318H240.395ZM239.529 52.7672C239.005 52.7672 238.72 52.3115 238.714 51.7019C238.714 51.6107 238.737 51.5423 238.766 51.4853C238.902 51.2118 239.187 51.0294 239.489 51.0294C239.951 51.0294 240.253 51.3485 240.253 51.8785C240.253 52.4084 239.962 52.7672 239.535 52.7672H239.529H239.529Z" fill="#B9BEBB"/>
<path d="M243.317 49.3318C243.226 49.3318 243.1 49.3375 242.952 49.3604C242.485 49.4172 242.075 49.6053 241.767 49.9072C241.397 50.2718 241.141 50.8473 241.141 51.5765C241.141 52.5395 241.659 53.1547 242.445 53.1547C243.22 53.1547 243.682 52.528 243.682 51.8443C243.682 51.1263 243.22 50.6479 242.565 50.6479C242.155 50.6479 241.841 50.8416 241.665 51.0808H241.653C241.739 50.4655 242.149 49.8958 242.941 49.7705C243.083 49.7476 243.214 49.7363 243.317 49.7419V49.3318H243.317ZM242.451 52.7672C241.927 52.7672 241.642 52.3115 241.636 51.7019C241.636 51.6107 241.659 51.5423 241.688 51.4853C241.824 51.2118 242.109 51.0294 242.411 51.0294C242.873 51.0294 243.175 51.3485 243.175 51.8785C243.175 52.4084 242.884 52.7672 242.457 52.7672H242.451H242.451Z" fill="#B9BEBB"/>
<path d="M246.239 49.3318C246.148 49.3318 246.022 49.3375 245.874 49.3604C245.407 49.4172 244.997 49.6053 244.689 49.9072C244.319 50.2718 244.062 50.8473 244.062 51.5765C244.062 52.5395 244.581 53.1547 245.367 53.1547C246.142 53.1547 246.603 52.528 246.603 51.8443C246.603 51.1263 246.142 50.6479 245.487 50.6479C245.077 50.6479 244.763 50.8416 244.587 51.0808H244.575C244.661 50.4655 245.071 49.8958 245.863 49.7705C246.005 49.7476 246.136 49.7363 246.239 49.7419V49.3318H246.239ZM245.373 52.7672C244.849 52.7672 244.564 52.3115 244.558 51.7019C244.558 51.6107 244.581 51.5423 244.609 51.4853C244.746 51.2118 245.031 51.0294 245.333 51.0294C245.794 51.0294 246.096 51.3485 246.096 51.8785C246.096 52.4084 245.806 52.7672 245.378 52.7672H245.373H245.373Z" fill="#B9BEBB"/>
</svg>
