<svg width="25" height="26" viewBox="0 0 25 26" fill="none" xmlns="http://www.w3.org/2000/svg">
<path d="M12.7701 3.84253C11.5662 5.04643 10.8898 6.67928 10.8898 8.38186C10.8898 10.0844 11.5662 11.7173 12.7701 12.9212C13.974 14.1251 15.6068 14.8014 17.3094 14.8014C19.012 14.8014 20.6448 14.1251 21.8487 12.9212C21.8487 14.7168 21.3163 16.472 20.3187 17.965C19.3211 19.458 17.9032 20.6216 16.2443 21.3088C14.5854 21.9959 12.76 22.1757 10.9989 21.8254C9.23782 21.4751 7.62016 20.6104 6.35049 19.3408C5.08081 18.0711 4.21616 16.4534 3.86585 14.6923C3.51555 12.9313 3.69534 11.1058 4.38248 9.44693C5.06962 7.78803 6.23326 6.37013 7.72623 5.37256C9.21921 4.37498 10.9745 3.84253 12.7701 3.84253Z" stroke="white" stroke-width="2.68997" stroke-linecap="round" stroke-linejoin="round"/>
</svg>
