<svg width="25" height="26" viewBox="0 0 25 26" fill="none" xmlns="http://www.w3.org/2000/svg">
<path fill-rule="evenodd" clip-rule="evenodd" d="M1.15636 0.966418C1.03824 1.23392 0.972992 1.56168 0.972992 1.94294V24.0589C0.972992 24.441 1.03832 24.7688 1.15657 25.0362L13.1905 13.0006L1.15636 0.966418ZM1.85158 25.7554C2.29763 25.9463 2.8795 25.8858 3.51399 25.5259L17.6711 17.4812L13.8976 13.7077L1.85158 25.7554ZM18.5735 16.9694L23.015 14.4459C24.412 13.6509 24.412 12.3519 23.015 11.5579L18.5715 9.03306L14.6047 13.0005L18.5735 16.9694ZM17.6698 8.52065L3.51399 0.476945C2.87946 0.116367 2.29756 0.0562038 1.85149 0.247342L13.8976 12.2934L17.6698 8.52065Z" fill="white"/>
</svg>
