<svg width="24" height="24" viewBox="0 0 24 24" fill="none" xmlns="http://www.w3.org/2000/svg">
<path d="M7.55016 21.7541C16.6045 21.7541 21.5583 14.2509 21.5583 7.74601C21.5583 7.53507 21.5536 7.31945 21.5442 7.10851C22.5079 6.41161 23.3395 5.5484 24 4.55945C23.1025 4.95875 22.1496 5.21953 21.1739 5.33289C22.2013 4.71706 22.9705 3.74962 23.3391 2.60992C22.3726 3.18271 21.3156 3.58676 20.2134 3.80476C19.4708 3.01571 18.489 2.49327 17.4197 2.3182C16.3504 2.14314 15.2532 2.3252 14.2977 2.83625C13.3423 3.34729 12.5818 4.15886 12.1338 5.14546C11.6859 6.13207 11.5754 7.23877 11.8195 8.29445C9.86249 8.19624 7.94794 7.68785 6.19998 6.80225C4.45203 5.91664 2.90969 4.67359 1.67297 3.15367C1.0444 4.23739 0.852057 5.5198 1.13503 6.74024C1.418 7.96069 2.15506 9.0276 3.19641 9.72414C2.41463 9.69932 1.64998 9.48883 0.965625 9.11007V9.17101C0.964925 10.3083 1.3581 11.4107 2.07831 12.2909C2.79852 13.1711 3.80132 13.7747 4.91625 13.9991C4.19206 14.1973 3.43198 14.2261 2.69484 14.0835C3.00945 15.0616 3.62157 15.917 4.44577 16.5305C5.26997 17.1439 6.26512 17.4847 7.29234 17.5054C5.54842 18.8753 3.39417 19.6183 1.17656 19.6148C0.783287 19.6142 0.390399 19.5901 0 19.5426C2.25286 20.9879 4.87353 21.7555 7.55016 21.7541Z" fill="#AFD9D9"/>
</svg>
