<svg width="24" height="24" viewBox="0 0 24 24" fill="none" xmlns="http://www.w3.org/2000/svg">
<path d="M18.8095 14.6596C19.5705 16.0867 20.3316 16.6575 20.3316 16.6575H3.20703C3.20703 16.6575 6.06113 14.7547 6.06113 8.09517C6.06113 4.95565 8.62982 2.38696 11.7693 2.38696C12.4353 2.38696 13.0061 2.4821 13.5769 2.67237" stroke="#83796B" stroke-width="1.90273" stroke-linecap="round" stroke-linejoin="round"/>
<path d="M10.1562 20.4639C10.3155 20.7535 10.5496 20.9951 10.8341 21.1633C11.1186 21.3315 11.443 21.4203 11.7736 21.4203C12.1041 21.4203 12.4286 21.3315 12.7131 21.1633C12.9976 20.9951 13.2317 20.7535 13.3909 20.4639" stroke="#83796B" stroke-width="1.90273" stroke-linecap="round" stroke-linejoin="round"/>
<path d="M17.4752 10.9479C19.0515 10.9479 20.3293 9.67012 20.3293 8.09385C20.3293 6.51757 19.0515 5.23975 17.4752 5.23975C15.8989 5.23975 14.6211 6.51757 14.6211 8.09385C14.6211 9.67012 15.8989 10.9479 17.4752 10.9479Z" fill="#FF0000"/>
</svg>
